<?xml version="1.0" standalone="no"?>
<!DOCTYPE svg PUBLIC "-//W3C//DTD SVG 20010904//EN"
 "http://www.w3.org/TR/2001/REC-SVG-20010904/DTD/svg10.dtd">
<svg version="1.0" xmlns="http://www.w3.org/2000/svg"
 width="512.000000pt" height="512.000000pt" viewBox="0 0 512.000000 512.000000"
 preserveAspectRatio="xMidYMid meet">

<g transform="translate(0.000000,512.000000) scale(0.100000,-0.100000)"
fill="#CCCCCC" stroke="none">
<path d="M343 4646 c-120 -29 -284 -139 -324 -217 -20 -40 -20 -49 -16 -857 4
-905 2 -884 73 -1172 288 -1168 1371 -1983 2574 -1936 257 9 456 43 688 118
393 125 746 342 1037 634 134 136 212 232 327 404 198 298 330 639 390 1012
21 127 22 171 25 945 4 802 4 812 -16 852 -27 51 -126 132 -216 176 -147 72
-288 70 -437 -4 l-78 -38 -77 38 c-154 76 -292 76 -449 -1 l-80 -39 -80 39
c-155 77 -293 77 -446 1 l-78 -38 -77 38 c-153 76 -293 76 -445 0 l-78 -38
-77 38 c-153 76 -293 76 -445 0 l-78 -38 -77 38 c-154 76 -292 76 -449 -1
l-80 -39 -80 39 c-155 77 -293 77 -447 1 l-77 -39 -74 38 c-116 58 -222 73
-333 46z m182 -305 c22 -10 67 -41 99 -69 92 -81 160 -83 244 -7 135 122 222
124 356 7 92 -81 157 -82 247 -5 65 55 141 93 189 93 50 0 106 -29 174 -88 92
-81 160 -83 244 -7 135 122 222 124 356 7 92 -81 160 -83 244 -7 135 122 222
124 356 7 92 -81 160 -83 244 -7 135 122 222 124 356 7 92 -81 157 -82 247 -5
65 55 141 93 189 93 50 0 106 -29 174 -88 93 -82 158 -83 249 -3 111 97 185
112 280 56 l47 -27 0 -194 0 -194 -394 0 c-221 0 -417 -4 -447 -10 -125 -23
-255 -121 -315 -235 l-29 -55 -1080 0 -1080 0 -25 53 c-30 64 -128 164 -193
196 -100 48 -126 51 -555 51 l-402 0 2 196 3 196 54 29 c62 34 109 36 166 10z
m595 -751 c45 -23 80 -80 80 -131 0 -46 -39 -108 -82 -130 -35 -18 -64 -19
-428 -19 l-390 0 0 150 0 150 390 0 c372 0 393 -1 430 -20z m3700 -130 l0
-151 -404 3 c-393 3 -405 4 -433 24 -66 49 -90 123 -59 182 18 34 54 68 86 81
15 6 182 10 418 10 l392 1 0 -150z m-1155 -207 c36 -68 114 -149 182 -185 100
-55 132 -58 572 -58 l404 0 -7 -120 c-4 -66 -9 -134 -13 -150 l-6 -30 -104 0
c-481 0 -896 -176 -1229 -522 -309 -321 -472 -756 -450 -1203 3 -71 8 -140 12
-151 7 -27 3 -28 -137 -50 -158 -25 -499 -25 -657 -1 -140 22 -145 24 -138 51
4 11 9 80 12 151 14 280 -44 555 -171 807 -76 152 -164 276 -285 402 -143 148
-282 250 -455 336 -253 124 -423 167 -712 177 l-161 6 -6 28 c-3 16 -8 83 -12
149 l-7 120 404 0 c429 0 456 3 554 50 70 34 148 112 186 185 l34 65 1080 0
1080 0 30 -57z m-2956 -868 c540 -104 965 -527 1076 -1068 20 -100 30 -273 21
-359 l-8 -67 -41 15 c-91 34 -347 165 -432 221 -326 215 -591 508 -773 853
-52 99 -129 285 -156 379 l-16 54 123 -6 c67 -3 160 -13 206 -22z m4005 -55
c-73 -237 -217 -507 -382 -714 -139 -175 -347 -364 -537 -489 -86 -56 -344
-188 -432 -221 l-41 -15 -8 67 c-4 36 -4 114 -1 173 23 398 218 762 535 1002
235 177 507 270 804 275 l86 2 -24 -80z"/>
</g>
</svg>
