<?xml version="1.0" standalone="no"?>
<!DOCTYPE svg PUBLIC "-//W3C//DTD SVG 20010904//EN"
 "http://www.w3.org/TR/2001/REC-SVG-20010904/DTD/svg10.dtd">
<svg version="1.0" xmlns="http://www.w3.org/2000/svg"
 width="512.000000pt" height="512.000000pt" viewBox="0 0 512.000000 512.000000"
 preserveAspectRatio="xMidYMid meet">

<g transform="translate(0.000000,512.000000) scale(0.100000,-0.100000)"
fill="#CCCCCC" stroke="none">
<path d="M2946 5109 c-570 -74 -1038 -518 -1153 -1096 -24 -123 -24 -386 0
-503 62 -295 174 -499 390 -714 l130 -129 -24 -19 c-287 -228 -643 -300 -989
-202 -210 60 -417 198 -538 357 -66 87 -140 108 -219 62 -96 -57 -312 -334
-400 -516 -403 -826 81 -1740 1141 -2154 599 -234 1359 -257 1981 -58 564 180
1001 503 1249 922 149 253 219 570 187 848 -38 329 -188 626 -447 890 -52 53
-94 97 -94 99 0 1 23 33 50 69 28 36 50 69 50 74 0 4 47 12 105 19 424 47 724
341 752 736 5 70 3 87 -15 122 -35 69 -48 73 -356 115 -155 22 -287 40 -295
42 -8 1 -28 45 -47 101 -94 280 -264 517 -494 686 -104 76 -295 171 -415 205
-176 51 -372 66 -549 44z m339 -304 c339 -55 638 -283 785 -599 21 -44 45
-104 53 -133 l16 -52 -42 -25 c-91 -54 -170 -151 -214 -263 -25 -62 -27 -80
-27 -213 -1 -170 11 -216 79 -309 l43 -59 -53 -63 c-29 -35 -69 -80 -89 -99
-45 -42 -61 -95 -46 -147 13 -48 19 -55 116 -135 441 -365 602 -839 442 -1298
-118 -338 -415 -643 -824 -848 -611 -305 -1417 -346 -2084 -105 -574 207 -994
606 -1111 1055 -32 123 -37 314 -11 438 25 122 70 236 132 341 55 91 149 219
162 219 4 0 38 -28 75 -61 178 -162 423 -280 673 -325 128 -24 363 -24 485 0
310 60 573 206 773 428 63 71 82 106 82 155 0 60 -30 96 -137 166 -212 138
-348 307 -429 532 -180 504 43 1064 521 1303 198 99 413 133 630 97z m1303
-1054 c112 -16 206 -31 209 -35 3 -3 -5 -31 -18 -62 -35 -88 -131 -184 -233
-234 -94 -47 -208 -74 -285 -67 -46 3 -59 9 -83 36 -26 29 -28 37 -28 112 0
99 13 146 53 195 33 39 116 84 157 84 14 0 116 -13 228 -29z"/>
<path d="M3448 4209 c-43 -22 -78 -81 -78 -129 0 -74 76 -150 149 -150 77 0
151 74 151 150 0 50 -35 107 -80 130 -49 25 -94 25 -142 -1z"/>
<path d="M2930 2214 c-110 -30 -173 -68 -326 -197 -196 -165 -527 -267 -963
-297 -154 -10 -186 -20 -222 -72 -33 -46 -31 -114 7 -203 154 -360 580 -605
1057 -605 588 0 1078 257 1172 615 19 75 19 238 0 327 -44 211 -209 377 -430
433 -74 19 -223 18 -295 -1z m240 -295 c49 -12 123 -60 150 -99 34 -47 50
-114 50 -205 0 -67 -4 -90 -26 -133 -70 -141 -290 -262 -579 -319 -137 -26
-433 -24 -537 5 -165 45 -273 102 -375 196 -35 32 -62 60 -60 62 1 2 52 10
112 19 405 59 711 182 925 370 132 116 204 138 340 104z"/>
</g>
</svg>
