<?xml version="1.0" standalone="no"?>
<!DOCTYPE svg PUBLIC "-//W3C//DTD SVG 20010904//EN"
 "http://www.w3.org/TR/2001/REC-SVG-20010904/DTD/svg10.dtd">
<svg version="1.0" xmlns="http://www.w3.org/2000/svg"
 width="512.000000pt" height="512.000000pt" viewBox="0 0 512.000000 512.000000"
 preserveAspectRatio="xMidYMid meet">

<g transform="translate(0.000000,512.000000) scale(0.100000,-0.100000)"
fill="#000000" stroke="none">
<path d="M1020 4369 c-127 -13 -239 -36 -364 -74 -239 -73 -246 -80 -246 -267
l0 -128 -172 0 c-186 0 -200 -4 -227 -57 -8 -16 -11 -436 -11 -1518 0 -1644
-4 -1537 60 -1570 26 -13 311 -15 2500 -15 2189 0 2474 2 2500 15 64 33 60
-74 60 1570 0 1379 -1 1499 -17 1525 -26 45 -51 50 -228 50 l-165 0 0 128 c0
184 -1 185 -215 257 -447 150 -990 114 -1480 -100 -128 -56 -291 -145 -397
-216 l-57 -39 -98 63 c-446 287 -971 424 -1443 376z m459 -224 c304 -43 598
-156 879 -337 l92 -60 0 -1344 c0 -739 -1 -1344 -3 -1344 -2 0 -54 29 -115 64
-253 144 -525 237 -837 287 -104 17 -456 17 -560 0 -67 -10 -204 -42 -292 -67
l-23 -6 0 1359 0 1360 43 16 c71 27 189 57 283 71 120 19 403 19 533 1z m2686
0 c100 -15 264 -56 311 -77 l24 -11 0 -1359 c0 -1290 -1 -1359 -17 -1354 -222
70 -522 100 -758 77 -331 -32 -679 -145 -958 -309 -49 -29 -91 -52 -93 -52 -2
0 -4 605 -4 1344 l0 1344 98 63 c259 168 578 292 864 333 130 19 410 19 533 1z
m-3753 -1731 l3 -1276 34 -30 c42 -38 75 -35 214 16 123 45 258 73 421 87 306
26 689 -50 991 -196 l110 -53 -987 -1 -988 -1 0 1365 0 1365 100 0 100 0 2
-1276z m4498 -89 l0 -1365 -987 0 -988 1 65 33 c108 56 288 123 410 155 185
47 315 64 505 63 207 0 355 -23 524 -83 161 -56 190 -59 232 -21 l34 30 3
1276 2 1276 100 0 100 0 0 -1365z"/>
</g>
</svg>
