<?xml version="1.0" standalone="no"?>
<!DOCTYPE svg PUBLIC "-//W3C//DTD SVG 20010904//EN"
 "http://www.w3.org/TR/2001/REC-SVG-20010904/DTD/svg10.dtd">
<svg version="1.0" xmlns="http://www.w3.org/2000/svg"
 width="512.000000pt" height="512.000000pt" viewBox="0 0 512.000000 512.000000"
 preserveAspectRatio="xMidYMid meet">

<g transform="translate(0.000000,512.000000) scale(0.100000,-0.100000)"
fill="#1E8449" stroke="none">
<path d="M2412 5109 c-175 -31 -350 -120 -480 -243 -131 -125 -221 -279 -261
-446 -11 -45 -21 -83 -23 -85 -2 -1 -39 -14 -83 -29 -444 -153 -755 -598 -755
-1079 0 -80 20 -229 39 -295 9 -32 9 -33 -37 -56 -156 -79 -314 -251 -385
-421 -50 -119 -61 -180 -61 -335 0 -172 12 -228 84 -375 108 -224 307 -387
555 -457 79 -22 92 -22 743 -26 l662 -3 0 -480 0 -479 -620 0 -620 0 0 -150 0
-150 1390 0 1390 0 0 150 0 150 -620 0 -620 0 0 480 0 480 613 0 c666 0 740 5
873 55 213 80 377 229 474 430 72 147 84 203 84 375 1 121 -3 158 -22 223 -66
230 -230 434 -429 535 -40 21 -41 23 -32 54 19 66 39 215 39 295 0 385 -198
752 -519 961 -86 56 -228 123 -289 137 -24 5 -34 13 -38 33 -36 157 -84 272
-158 375 -58 82 -186 203 -264 250 -74 46 -163 83 -257 109 -82 22 -292 32
-373 17z m292 -309 c220 -56 393 -224 452 -440 8 -30 17 -105 21 -166 l6 -111
81 -12 c394 -60 681 -341 737 -723 25 -169 -4 -329 -92 -518 -27 -59 -49 -111
-49 -116 0 -6 51 -22 114 -38 63 -15 140 -40 173 -55 281 -134 394 -481 248
-760 -65 -123 -190 -228 -324 -273 -65 -22 -76 -23 -713 -26 l-648 -3 0 418 0
418 275 275 275 275 -107 107 -108 108 -167 -167 -168 -168 0 493 0 492 -150
0 -150 0 0 -222 0 -223 -168 168 -167 167 -108 -108 -107 -107 275 -275 275
-275 0 -325 0 -325 -163 163 c-89 89 -167 162 -172 162 -6 0 -56 -46 -113
-103 l-102 -102 275 -275 275 -275 0 -148 0 -148 -647 3 c-638 3 -649 4 -714
26 -245 82 -401 311 -386 567 8 148 60 261 168 366 74 73 167 119 313 155 64
15 116 32 116 38 0 5 -22 57 -49 116 -64 136 -90 231 -98 352 -13 211 54 417
190 586 131 161 330 270 553 302 l81 12 6 111 c4 62 13 137 21 167 88 322 423
521 740 440z"/>
</g>
</svg>
